<?xml version="1.0" encoding="UTF-8" ?>
<!DOCTYPE svg PUBLIC "-//W3C//DTD SVG 1.1//EN" "http://www.w3.org/Graphics/SVG/1.1/DTD/svg11.dtd">
<svg width="84pt" height="49pt" viewBox="0 0 84 49" version="1.1" xmlns="http://www.w3.org/2000/svg">
<path fill="#ffffff" d=" M 0.00 0.00 L 84.00 0.00 L 84.00 49.00 L 0.00 49.00 L 0.00 0.00 Z" />
<path fill="#105ba3" d=" M 28.25 2.31 C 32.99 3.56 37.39 5.88 40.92 9.32 C 36.70 14.80 34.31 21.93 35.85 28.82 C 36.54 31.69 37.67 34.43 38.69 37.19 C 32.07 32.80 28.53 24.84 28.25 17.06 C 28.15 12.14 28.26 7.23 28.25 2.31 Z" />
<path fill="#105ba3" d=" M 42.08 9.32 C 45.61 5.88 50.00 3.56 54.75 2.31 C 54.74 7.23 54.85 12.14 54.75 17.06 C 54.47 24.84 50.93 32.80 44.31 37.19 C 46.53 31.76 48.60 25.88 47.14 19.95 C 46.45 16.01 44.34 12.55 42.08 9.32 Z" />
<path fill="#105ba3" d=" M 2.92 18.84 C 4.91 10.61 12.03 4.11 20.31 2.55 C 20.31 8.69 20.79 14.89 20.02 21.00 C 19.00 28.64 13.94 35.33 7.24 38.99 C 3.03 33.29 0.90 25.79 2.92 18.84 Z" />
<path fill="#105ba3" d=" M 62.68 2.55 C 70.97 4.11 78.09 10.61 80.08 18.84 C 82.10 25.78 79.97 33.29 75.76 38.99 C 69.06 35.33 64.00 28.64 62.98 21.00 C 62.21 14.89 62.69 8.69 62.68 2.55 Z" />
<path fill="#de3d2e" d=" M 41.63 37.97 C 36.18 30.09 35.88 18.88 41.66 11.10 C 46.85 19.23 46.71 29.83 41.63 37.97 Z" />
<path fill="#105ba3" d=" M 14.05 44.62 C 18.44 40.89 22.58 36.65 24.43 31.06 C 26.04 36.61 30.17 40.81 34.56 44.34 C 28.18 47.77 20.61 47.25 14.05 44.62 Z" />
<path fill="#105ba3" d=" M 58.57 31.05 C 60.42 36.65 64.56 40.89 68.95 44.62 C 62.39 47.24 54.82 47.79 48.45 44.33 C 52.83 40.80 56.97 36.61 58.57 31.05 Z" />
</svg>
